<svg
        id="timer-icon"
        xmlns="http://www.w3.org/2000/svg"
        viewBox="0 0 128 128"
        fill="white"
>
    <path d="M59.87,9.76C27.2,9.76.7,36.26.7,68.93s26.5,59.17,59.17,59.17,59.17-26.5,59.17-59.17S92.54,9.76,59.87,9.76ZM59.87,118.24c-27.24,0-49.31-22.07-49.31-49.31S32.63,19.62,59.87,19.62s49.31,22.07,49.31,49.31-22.07,49.31-49.31,49.31Z" />
    <rect x="54.94" y="29.48" width="9.86" height="39.45" />
    <rect x="54.94" y="64" width="29.59" height="9.86" />
    <path d="M40.15-.1h39.45v9.86h-39.45V-.1Z" />
    <path d="M113.25,25.42l7.03-7.03,7.03,7.03-7.03,7.03-7.03-7.03Z" />
</svg>